<svg xmlns="http://www.w3.org/2000/svg" xmlns:xlink="http://www.w3.org/1999/xlink" contentStyleType="text/css" data-diagram-type="CLASS" height="405px" preserveAspectRatio="none" style="width:712px;height:405px;background:#FFFFFF;" version="1.1" viewBox="0 0 712 405" width="712px" zoomAndPan="magnify"><defs/><g><!--class EventoBase--><g id="elem_EventoBase"><rect codeLine="13" fill="#ADD8E6" height="202.9375" id="EventoBase" rx="2.5" ry="2.5" style="stroke:#0000FF;stroke-width:0.5;" width="190.8008" x="260.76" y="7"/><ellipse cx="310.529" cy="27.1328" fill="#B4A7E5" rx="11" ry="11" style="stroke:#181818;stroke-width:1;"/><path d="M306.4509,22.8984 L306.4509,20.7422 L313.8415,20.7422 L313.8415,22.8984 L311.3728,22.8984 L311.3728,30.9766 L313.8415,30.9766 L313.8415,33.1328 L306.4509,33.1328 L306.4509,30.9766 L308.9197,30.9766 L308.9197,22.8984 L306.4509,22.8984 Z " fill="#000000"/><text fill="#000000" font-family="sans-serif" font-size="12" font-style="italic" lengthAdjust="spacing" textLength="68.2031" x="338.3088" y="23.1387">«interface»</text><text fill="#000000" font-family="sans-serif" font-size="14" font-style="italic" lengthAdjust="spacing" textLength="82.7627" x="331.029" y="38.9639">EventoBase</text><line style="stroke:#0000FF;stroke-width:0.5;" x1="261.76" x2="450.5608" y1="47.2656" y2="47.2656"/><ellipse cx="271.76" cy="60.9141" fill="none" rx="3" ry="3" style="stroke:#038048;stroke-width:1;"/><text fill="#000000" font-family="sans-serif" font-size="14" lengthAdjust="spacing" textLength="63.9023" x="280.76" y="64.2607">titulo: str</text><ellipse cx="271.76" cy="77.2109" fill="none" rx="3" ry="3" style="stroke:#038048;stroke-width:1;"/><text fill="#000000" font-family="sans-serif" font-size="14" lengthAdjust="spacing" textLength="103.8994" x="280.76" y="80.5576">data: datetime</text><ellipse cx="271.76" cy="93.5078" fill="none" rx="3" ry="3" style="stroke:#038048;stroke-width:1;"/><text fill="#000000" font-family="sans-serif" font-size="14" lengthAdjust="spacing" textLength="130.4434" x="280.76" y="96.8545">local: Optional[str]</text><ellipse cx="271.76" cy="109.8047" fill="none" rx="3" ry="3" style="stroke:#038048;stroke-width:1;"/><text fill="#000000" font-family="sans-serif" font-size="14" lengthAdjust="spacing" textLength="164.8008" x="280.76" y="113.1514">descricao: Optional[str]</text><ellipse cx="271.76" cy="126.1016" fill="none" rx="3" ry="3" style="stroke:#038048;stroke-width:1;"/><text fill="#000000" font-family="sans-serif" font-size="14" lengthAdjust="spacing" textLength="102.5732" x="280.76" y="129.4482">lembrete: bool</text><ellipse cx="271.76" cy="142.3984" fill="none" rx="3" ry="3" style="stroke:#038048;stroke-width:1;"/><text fill="#000000" font-family="sans-serif" font-size="14" lengthAdjust="spacing" textLength="70.7246" x="280.76" y="145.7451">status: str</text><ellipse cx="271.76" cy="158.6953" fill="none" rx="3" ry="3" style="stroke:#038048;stroke-width:1;"/><text fill="#000000" font-family="sans-serif" font-size="14" lengthAdjust="spacing" textLength="156.7412" x="280.76" y="162.042">dataCriacao: datetime</text><line style="stroke:#0000FF;stroke-width:0.5;" x1="261.76" x2="450.5608" y1="169.3438" y2="169.3438"/><ellipse cx="271.76" cy="182.9922" fill="#84BE84" rx="3" ry="3" style="stroke:#038048;stroke-width:1;"/><text fill="#000000" font-family="sans-serif" font-size="14" font-style="italic" lengthAdjust="spacing" textLength="140.3281" x="280.76" y="186.3389">get_prioridade(): str</text><ellipse cx="271.76" cy="199.2891" fill="#84BE84" rx="3" ry="3" style="stroke:#038048;stroke-width:1;"/><text fill="#000000" font-family="sans-serif" font-size="14" lengthAdjust="spacing" textLength="93.0713" x="280.76" y="202.6357">to_dict(): dict</text></g><!--class Reuniao--><g id="elem_Reuniao"><rect codeLine="26" fill="#D3D3D3" height="88.8594" id="Reuniao" rx="2.5" ry="2.5" style="stroke:#808080;stroke-width:0.5;" width="166.3281" x="7" y="309.94"/><ellipse cx="55.8135" cy="330.0728" fill="#ADD1B2" rx="11" ry="11" style="stroke:#181818;stroke-width:1;"/><path d="M58.7822,335.7134 Q58.2041,336.0103 57.5635,336.1509 Q56.9229,336.3072 56.2197,336.3072 Q53.7197,336.3072 52.3916,334.6666 Q51.0791,333.0103 51.0791,329.8853 Q51.0791,326.7603 52.3916,325.1041 Q53.7197,323.4478 56.2197,323.4478 Q56.9229,323.4478 57.5635,323.6041 Q58.2197,323.7603 58.7822,324.0572 L58.7822,326.7759 Q58.1572,326.1978 57.5635,325.9322 Q56.9697,325.6509 56.3447,325.6509 Q55.001,325.6509 54.3135,326.7291 Q53.626,327.7916 53.626,329.8853 Q53.626,331.9791 54.3135,333.0572 Q55.001,334.1197 56.3447,334.1197 Q56.9697,334.1197 57.5635,333.8541 Q58.1572,333.5728 58.7822,332.9947 L58.7822,335.7134 Z " fill="#000000"/><text fill="#000000" font-family="sans-serif" font-size="12" font-style="italic" lengthAdjust="spacing" textLength="64.2012" x="74.3135" y="326.0787">«abstract»</text><text fill="#000000" font-family="sans-serif" font-size="14" lengthAdjust="spacing" textLength="57.1211" x="77.8535" y="341.9039">Reuniao</text><line style="stroke:#808080;stroke-width:0.5;" x1="8" x2="172.3281" y1="350.2056" y2="350.2056"/><rect fill="none" height="6" style="stroke:#C82930;stroke-width:1;" width="6" x="15" y="360.8541"/><text fill="#000000" font-family="sans-serif" font-size="14" lengthAdjust="spacing" textLength="99.415" x="27" y="367.2007">prioridade: str</text><line style="stroke:#808080;stroke-width:0.5;" x1="8" x2="172.3281" y1="374.5025" y2="374.5025"/><ellipse cx="18" cy="388.1509" fill="#84BE84" rx="3" ry="3" style="stroke:#038048;stroke-width:1;"/><text fill="#000000" font-family="sans-serif" font-size="14" lengthAdjust="spacing" textLength="140.3281" x="27" y="391.4976">get_prioridade(): str</text></g><!--class Consulta--><g id="elem_Consulta"><rect codeLine="30" fill="#D3D3D3" height="88.8594" id="Consulta" rx="2.5" ry="2.5" style="stroke:#808080;stroke-width:0.5;" width="166.3281" x="273" y="309.94"/><ellipse cx="321.2446" cy="330.0728" fill="#ADD1B2" rx="11" ry="11" style="stroke:#181818;stroke-width:1;"/><path d="M324.2134,335.7134 Q323.6353,336.0103 322.9946,336.1509 Q322.354,336.3072 321.6509,336.3072 Q319.1509,336.3072 317.8228,334.6666 Q316.5103,333.0103 316.5103,329.8853 Q316.5103,326.7603 317.8228,325.1041 Q319.1509,323.4478 321.6509,323.4478 Q322.354,323.4478 322.9946,323.6041 Q323.6509,323.7603 324.2134,324.0572 L324.2134,326.7759 Q323.5884,326.1978 322.9946,325.9322 Q322.4009,325.6509 321.7759,325.6509 Q320.4321,325.6509 319.7446,326.7291 Q319.0571,327.7916 319.0571,329.8853 Q319.0571,331.9791 319.7446,333.0572 Q320.4321,334.1197 321.7759,334.1197 Q322.4009,334.1197 322.9946,333.8541 Q323.5884,333.5728 324.2134,332.9947 L324.2134,335.7134 Z " fill="#000000"/><text fill="#000000" font-family="sans-serif" font-size="12" font-style="italic" lengthAdjust="spacing" textLength="64.2012" x="340.3135" y="326.0787">«abstract»</text><text fill="#000000" font-family="sans-serif" font-size="14" lengthAdjust="spacing" textLength="61.3389" x="341.7446" y="341.9039">Consulta</text><line style="stroke:#808080;stroke-width:0.5;" x1="274" x2="438.3281" y1="350.2056" y2="350.2056"/><rect fill="none" height="6" style="stroke:#C82930;stroke-width:1;" width="6" x="281" y="360.8541"/><text fill="#000000" font-family="sans-serif" font-size="14" lengthAdjust="spacing" textLength="99.415" x="293" y="367.2007">prioridade: str</text><line style="stroke:#808080;stroke-width:0.5;" x1="274" x2="438.3281" y1="374.5025" y2="374.5025"/><ellipse cx="284" cy="388.1509" fill="#84BE84" rx="3" ry="3" style="stroke:#038048;stroke-width:1;"/><text fill="#000000" font-family="sans-serif" font-size="14" lengthAdjust="spacing" textLength="140.3281" x="293" y="391.4976">get_prioridade(): str</text></g><!--class Lembrete--><g id="elem_Lembrete"><rect codeLine="34" fill="#D3D3D3" height="88.8594" id="Lembrete" rx="2.5" ry="2.5" style="stroke:#808080;stroke-width:0.5;" width="166.3281" x="539" y="309.94"/><ellipse cx="584.2095" cy="330.0728" fill="#ADD1B2" rx="11" ry="11" style="stroke:#181818;stroke-width:1;"/><path d="M587.1782,335.7134 Q586.6001,336.0103 585.9595,336.1509 Q585.3188,336.3072 584.6157,336.3072 Q582.1157,336.3072 580.7876,334.6666 Q579.4751,333.0103 579.4751,329.8853 Q579.4751,326.7603 580.7876,325.1041 Q582.1157,323.4478 584.6157,323.4478 Q585.3188,323.4478 585.9595,323.6041 Q586.6157,323.7603 587.1782,324.0572 L587.1782,326.7759 Q586.5532,326.1978 585.9595,325.9322 Q585.3657,325.6509 584.7407,325.6509 Q583.397,325.6509 582.7095,326.7291 Q582.022,327.7916 582.022,329.8853 Q582.022,331.9791 582.7095,333.0572 Q583.397,334.1197 584.7407,334.1197 Q585.3657,334.1197 585.9595,333.8541 Q586.5532,333.5728 587.1782,332.9947 L587.1782,335.7134 Z " fill="#000000"/><text fill="#000000" font-family="sans-serif" font-size="12" font-style="italic" lengthAdjust="spacing" textLength="64.2012" x="606.3135" y="326.0787">«abstract»</text><text fill="#000000" font-family="sans-serif" font-size="14" lengthAdjust="spacing" textLength="67.4092" x="604.7095" y="341.9039">Lembrete</text><line style="stroke:#808080;stroke-width:0.5;" x1="540" x2="704.3281" y1="350.2056" y2="350.2056"/><rect fill="none" height="6" style="stroke:#C82930;stroke-width:1;" width="6" x="547" y="360.8541"/><text fill="#000000" font-family="sans-serif" font-size="14" lengthAdjust="spacing" textLength="99.415" x="559" y="367.2007">prioridade: str</text><line style="stroke:#808080;stroke-width:0.5;" x1="540" x2="704.3281" y1="374.5025" y2="374.5025"/><ellipse cx="550" cy="388.1509" fill="#84BE84" rx="3" ry="3" style="stroke:#038048;stroke-width:1;"/><text fill="#000000" font-family="sans-serif" font-size="14" lengthAdjust="spacing" textLength="140.3281" x="559" y="391.4976">get_prioridade(): str</text></g><!--reverse link EventoBase to Reuniao--><g id="link_EventoBase_Reuniao"><path d="M247.2418,209.3436 C205.6818,247.4436 172.1,278.24 138.07,309.44 " fill="none" id="EventoBase-backto-Reuniao" style="stroke:#181818;stroke-width:1;stroke-dasharray:7.0,7.0;"/><polygon fill="none" points="260.51,197.18,243.1872,204.9209,251.2963,213.7664,260.51,197.18" style="stroke:#181818;stroke-width:1;"/></g><!--reverse link EventoBase to Consulta--><g id="link_EventoBase_Consulta"><path d="M356.16,228.44 C356.16,263.03 356.16,281.95 356.16,309.6 " fill="none" id="EventoBase-backto-Consulta" style="stroke:#181818;stroke-width:1;stroke-dasharray:7.0,7.0;"/><polygon fill="none" points="356.16,210.44,350.16,228.44,362.16,228.44,356.16,210.44" style="stroke:#181818;stroke-width:1;"/></g><!--reverse link EventoBase to Lembrete--><g id="link_EventoBase_Lembrete"><path d="M465.0882,209.3436 C506.6482,247.4436 540.22,278.24 574.26,309.44 " fill="none" id="EventoBase-backto-Lembrete" style="stroke:#181818;stroke-width:1;stroke-dasharray:7.0,7.0;"/><polygon fill="none" points="451.82,197.18,461.0337,213.7664,469.1428,204.9209,451.82,197.18" style="stroke:#181818;stroke-width:1;"/></g><!--SRC=[jPB1QXj138RlVWhTaX8AoTM47Eo6KWYqz1fAa6TaHtXsj6WqXH3oD3tqGV9YrNgyoJhreJra3xkBzE__Iz_i2NoYDMVEKO2ASP82FIe2PoDTOw02125XAVw6gsAAXcLMjfm7NTTwy3W3lnOOjXkLckDIakZbvOlBrHNSyERU5gbIauf6qYEoLyLRivOURFJwhFZmjzT4jHCypKvWANdDcwhu_FlvbxG5iNQK3HK433lCzmx04VIkmQ4ZanspH2hKmyNv-QIgcBTZrKE-Z4k0i_oc4gjxl6m6rpy7qmKMWiE56xepOwj9vk3Jjq9qq7FmEnbt3SbPae1f3bzxOycORbtyOw-c4fG3oj5kecwbP3I7bKXgjM9ejRm9N2hZpkGmTqDsrokBSiH8fnzsNy7ZoFffluBSHGusj8Uden_Ox_-TI2EKuJY2JoEpzkzyfveP1GxEZhlUXtPaPKgkiVhuEifa_ACp-Wmjn3DBJORlctApv_mFAKF8VqNy0G00]--></g></svg>